<!--?xml version="1.0" encoding="utf-8"?-->
<!-- Generator: Adobe Illustrator 22.1.0, SVG Export Plug-In . SVG Version: 6.00 Build 0)  -->
<svg version="1.1" id="_x34_" xmlns="http://www.w3.org/2000/svg" xmlns:xlink="http://www.w3.org/1999/xlink" x="0px" y="0px" viewBox="0 0 800 395.3" style="enable-background:new 0 0 800 395.3;" xml:space="preserve">
<style type="text/css">
	.stblack{fill:#000000;}
	.st0{fill:#FFFFFF;}
</style>
<g>
	<path class="st0" d="M776.4,182.8c0-31.1-19.9-57.3-47-65.1c-5.7-20.5-25-35.6-48-35.6c-5.5,0-10.8,0.9-15.8,2.5
		c-10-25.4-35.9-43.5-66.2-43.5c-11,0-21.4,2.4-30.6,6.6c-11.7-11.9-30-21.1-51.5-24.4c-26.2-4-50.5,1.9-65.2,13.9
		c-13.3-12.5-32.4-21.1-54.3-22.9c-21.9-1.8-42.2,3.6-57.3,13.8c-6.4-1.7-13.3-2.7-20.5-2.7c-12.7,0-24.5,2.9-34.1,7.9
		c-9.8-2.9-20.5-4.4-31.7-4.4c-37.7,0-69.7,17.7-81.5,42.3c-8.8-0.8-18.2-0.2-27.6,1.9c-32,7.2-55.3,30-59.6,55.4
		c-34.8,2-62.4,28.7-62.4,61.3c0,18.4,8.8,35,22.8,46.2c-1.2,3.9-1.8,8-1.8,12.2c0,25.4,22.8,46.1,51.4,47.4
		c5.1,25.8,32.6,45.4,65.9,45.4c8.6,0,16.8-1.3,24.3-3.7c12.1,13.8,35.8,24.8,63.9,27.9c21.4,2.4,41.3-0.3,56.1-6.5
		c4.9,1.5,10.2,2.4,15.6,2.4c8.6,5.6,18.8,9.5,30,10.9c18.4,2.3,35.8-2.4,48.6-11.8c10.9,13.3,27.5,21.8,46.2,21.8
		c18,0,34.1-7.9,45-20.4c11.7,8.9,26.4,14.3,42.2,14.3c19.6,0,37.4-8.1,50.1-21.2c10,6.7,22.4,10.7,35.8,10.7
		c25.9,0,47.9-14.8,56.2-35.5c5,2,10.5,3.2,16.2,3.2c24.7,0,44.7-20.8,45.7-46.9c17.1-4.9,29.7-21.3,29.7-40.7
		c0-7.3-1.8-14.1-4.8-20.1C771,213.9,776.4,199,776.4,182.8z"></path>
	<path class="stblack" d="M82.7,130.1c-22,4.9-42.9,17.3-51.3,39.1c-8.9,22.9-1.1,49.2,17,65.4c3.5,3.1,7.4,5.5,11.1,8.3c5.7,4.3-2.5,2.2-5,1.1
		c-10.1-4.6-18.6-12.4-24.6-21.6c-12.7-19.6-13.5-45.7-0.9-65.6c6.7-10.6,16.7-18.9,28.1-24c5.7-2.5,11.8-4.3,18-5
		c2.3-0.3,5.3-0.8,7.6-0.3C85.5,128,85.5,129.5,82.7,130.1z"></path>
	<path class="stblack" d="M46.7,238c-0.2,7.9,0,15.5,3.1,23c3.1,7.5,8.4,13.9,14.8,18.9c6.3,5,13.5,8.6,21.1,11.1c1.4,0.5,8.8,1.7,9,3.5
		c0.3,2.5-4.9,1.9-6.3,1.9c-15.8-0.6-31.6-9.7-40.3-22.8c-4.4-6.6-7.1-14.6-7-22.6c0-3.4,0.5-6.8,1.6-10c0.4-1.1,0.9-3.7,2.1-4.3
		C45.7,236.1,46.7,236.7,46.7,238z"></path>
	<path class="stblack" d="M96.5,280.5c-0.9,45.2,51.1,64.2,88.7,54.1c3.8-1,7.5-2.3,11.2-3.8c1.9-0.8,7.9-2.9,4.4,1.1c-2.8,3.1-8.1,5.3-11.8,6.9
		c-4.7,2.1-9.8,3.5-14.8,4.5c-20.5,3.9-43-0.5-59.7-13.3c-8.9-6.8-16.2-16-19.7-26.7c-1.8-5.4-2.5-11.1-2-16.8
		c0.2-2,0.3-4.4,1.2-6.3C94.7,278.3,96.5,277.2,96.5,280.5z"></path>
	<path class="stblack" d="M169.9,72.4c-33.3,3.4-74,19.9-82.1,56.3c-0.8,3.7-1.2,7.4-1.4,11.2c-0.3,4.4-2.3,4.3-3.3,0.1c-2-8.8-0.2-18.7,3.3-26.9
		c7.3-17,22.8-29.5,39.4-36.8c8.7-3.8,18.1-6.4,27.6-7.2c4.3-0.4,8.6-0.4,12.9,0c1.1,0.1,3.9,0.1,4.8,1
		C172.2,71.2,172,72.2,169.9,72.4z"></path>
	<path class="stblack" d="M284.3,34.3c-20.3-2.8-40.1-3.1-59.9,2.7c-20.3,5.9-41.3,17.7-50.6,37.7c-1.9,4-3.1,8.2-4,12.6c-0.6,2.9-2.6,7.6-3.4,1.9
		c-1.3-9.9,3.2-20.9,8.7-28.9c12.4-18.1,34.2-28.4,55.2-32.6c12.1-2.4,24.5-2.8,36.6-0.9c4.7,0.7,9.3,1.8,13.8,3.3
		c1.4,0.5,2.9,0.9,4.2,1.6C287,32.9,287.6,34.8,284.3,34.3z"></path>
	<path class="stblack" d="M458.5,46.4c-12.7-11.9-26.7-21.3-43.7-25.7c-18.7-4.8-38.5-4-56.9,1.5c-3.9,1.2-7.8,2.6-11.6,4.1
		c-2.1,0.8-9.4,3.1-4.8-1.2c5.4-5.1,13.8-8.2,20.6-10.5c18.7-6.2,39.3-6.4,58-0.3c9.8,3.2,19.2,8.2,27.1,14.9
		c3.7,3.2,7.2,6.7,10.2,10.6c1.1,1.4,2.5,3.1,3.2,4.8C461.2,46.5,460.8,48.6,458.5,46.4z"></path>
	<path class="stblack" d="M356.4,36.3c-15.6-5.5-31.3-8.7-47.9-6.4c-8.6,1.2-16.9,3.8-24.6,7.7c-3.1,1.6-6.6,5-9.9,6c-3.9,1.2-2-2.3-0.6-4
		c10.5-12.7,28.4-18.1,44.3-18.3c8.8-0.1,17.7,1.3,25.9,4.4c3.8,1.5,7.6,3.3,10.9,5.7c0.8,0.6,3.5,2.1,3.6,3.2
		C358.4,35.9,357.9,36.8,356.4,36.3z"></path>
	<path class="stblack" d="M567.4,48.5c-14.7-9.9-30.1-17.8-47.6-21.3c-18.8-3.7-38.4-2.4-56.2,4.7c-2.9,1.2-5.7,2.7-8.6,3.9c-4.5,1.8-3.8-0.9-1-3.3
		c5.8-5,13.2-8.5,20.4-10.9c17.6-5.9,37.2-5.4,54.9-0.1c9.1,2.8,17.8,6.8,25.7,12.1c3.9,2.7,7.7,5.7,11,9c1,1,2.5,2.3,3.2,3.6
		C570,48,570.1,50.2,567.4,48.5z"></path>
	<path class="stblack" d="M188.5,338.5c13.9,10.8,29.3,18.2,46.7,21.2c19.2,3.4,38.9,2.2,58.1-0.5c3.3-0.5,6.6-1,9.9-1.5c2.5-0.4,8.2-0.2,3.4,2.5
		c-6.4,3.6-15,5.1-22.1,6.5c-18.3,3.6-37.6,4-55.8-0.5c-9.8-2.4-19.3-6.3-27.6-12c-3.9-2.7-7.7-5.8-10.9-9.3
		c-1.2-1.3-2.8-2.8-3.5-4.4C185.8,338.7,186,336.6,188.5,338.5z"></path>
	<path class="stblack" d="M320.3,358.9c26,11.3,56.6,14.4,81-2.7c2.5-1.8,4.9-4.7,7.6-6.1c3.4-1.7,2.6,1.3,1.3,3.4c-3.4,5.6-9,10.2-14.6,13.6
		c-12.6,7.6-27.9,10.1-42.5,8.5c-8.1-0.9-16.2-3.1-23.4-6.8c-3-1.5-5.8-3.3-8.4-5.3c-0.8-0.7-3.1-2.1-3.2-3.2
		C318.1,359,318.8,358.3,320.3,358.9z"></path>
	<path class="stblack" d="M284.2,343.4c11.3,6.9,21.9,12.7,35.5,13.5c6.6,0.4,13.2-0.3,19.5-1.9c2.1-0.5,5.2-2.3,7.4-2.1c4.2,0.3,0.4,3.6-1.3,4.7
		c-10.5,7.3-25.1,8.6-37.3,5.4c-6.3-1.6-12.4-4.4-17.5-8.4c-2.2-1.7-4.4-3.7-6.2-6C284,348.1,280.2,341.1,284.2,343.4z"></path>
	<path class="stblack" d="M402.6,361.5c12.3,9.6,25.9,16.1,41.9,16.2c17.2,0.1,33.6-7.1,45.7-19.3c1.8-1.9,3.9-5.5,6.2-6.8c3.5-2.1,1.9,2.5,1,4.3
		c-3.2,6.4-8.1,12.1-13.7,16.5c-13.2,10.6-30.8,15-47.5,12.4c-8.8-1.4-17.4-4.8-24.6-10c-3.2-2.3-6.2-5.1-8.7-8.2
		c-0.7-0.9-1.9-2-2.3-3.1C400.1,361.9,400.3,359.7,402.6,361.5z"></path>
	<path class="stblack" d="M492.7,361.1c12.5,5.3,24.1,9.9,37.9,10.4c14.1,0.5,28.2-3.2,40.4-10c2.9-1.6,5.6-4,8.6-5.4c3.8-1.7,3.2,0.9,1.4,3.2
		c-3.9,5-9.5,9-15,12c-12.7,6.9-27.5,9.4-41.8,7.4c-7.7-1.1-15.2-3.4-22-7.1c-3-1.7-6-3.6-8.6-5.8
		C492.6,364.8,488.4,359.3,492.7,361.1z"></path>
	<path class="stblack" d="M572.5,343.4c15.2,13.4,34,20.3,54.4,17.4c19.8-2.8,38.9-14.5,46.8-33.5c1.7-4.2,2.1-8.7,3.6-12.9c2.1-5.8,3.1,1.4,3,4.1
		c-0.3,9.2-3.6,18.1-9,25.5c-11.8,16.4-32.6,25.1-52.5,25.1c-11.3,0-22.6-2.9-32.3-8.8c-4.5-2.7-8.6-6.1-12.2-10
		c-1.3-1.4-3.1-3.2-3.8-5C569.7,343.3,570,341.1,572.5,343.4z"></path>
	<path class="stblack" d="M678.3,329.7c16.5,1.4,31.2-1.6,42.9-14.2c5.3-5.7,9.2-12.7,11.6-20.1c0.6-1.8,1-7.3,2.6-8.5c3.2-2.3,2.8,5.2,2.7,6.6
		c-0.6,16-11.2,30.9-25.2,38.2c-7.2,3.7-15.6,5.4-23.7,4.4c-3.2-0.4-6.5-1.2-9.5-2.6C678.5,333,674.3,329.4,678.3,329.7z"></path>
	<path class="stblack" d="M668.6,105.5c-3.6-21-14.3-39.2-32.8-50.3C616,43.5,590.9,42,569.6,50.4c-4.5,1.8-8.6,4-12.8,6.3c-0.7,0.4-3.6,2.7-4.5,1.7
		c-1.3-1.5,2-4,2.9-4.8c7.5-6.7,17-11.1,26.7-13.6c21.9-5.6,46.3-0.8,64.1,13c10,7.8,17.9,18.3,22.1,30.3c1.8,5.1,2.9,10.5,3.2,15.9
		c0.1,1.7,0.6,5.6-0.3,7.2C670,108.3,669,108,668.6,105.5z"></path>
	<path class="stblack" d="M727.6,116.6c-4.4-6.6-8-12.9-14.1-18.1c-6.2-5.2-13.3-8.9-21.1-10.9c-6.3-1.7-12.8-2.1-19.3-1.8c-1.5,0.1-7.6,1.6-7.8-1
		c-0.2-2.2,6.4-3.7,7.8-4.1c13.9-3.8,29.5-0.3,40.9,8.4c5.1,3.8,9.4,8.6,12.4,14.2c1.2,2.3,2.3,4.6,3,7.1c0.4,1.3,1.4,3.9,1,5.2
		C729.8,116.9,728.8,118.4,727.6,116.6z"></path>
	<path class="stblack" d="M746.6,238.3c17.7-15.8,28-37.7,25.3-61.8c-2.7-23.7-17.5-46-39.9-55.2c-5-2.1-10.1-3.3-15.4-4.3c-0.5-0.1-4.5-0.4-4.2-1.8
		c0.4-1.9,4.8-1.4,6.2-1.4c10.8,0.1,21.4,3.7,30.4,9.6c19.6,12.9,31.1,36.3,31.1,59.6c0,14.2-4.2,28.2-12.4,39.8
		c-3.5,4.9-7.7,9.5-12.5,13.2c-2,1.6-4.3,3.3-6.7,4.4C745.8,241.5,743.9,240.6,746.6,238.3z"></path>
	<path class="stblack" d="M714.5,284.6c12.9,1.4,24.7-0.4,34.4-9.7c10.7-10.2,15.2-25.2,13.6-39.7c-0.2-1.5-1.7-6.3,0.1-7c2-0.7,3.5,4.1,4,5.5
		c2.4,6.3,2.8,13.4,1.7,20c-2,13.3-10,25.8-21.8,32.4c-6.7,3.8-14.4,5.5-22.1,4.6c-2.9-0.4-5.8-1.1-8.4-2.2
		C714.9,287.9,710.3,284.2,714.5,284.6z"></path>
</g>
</svg>
