<?xml version="1.0" encoding="iso-8859-1"?>
<!-- Generator: Adobe Illustrator 18.1.1, SVG Export Plug-In . SVG Version: 6.00 Build 0)  -->
<svg version="1.1" id="_x36_" xmlns="http://www.w3.org/2000/svg" xmlns:xlink="http://www.w3.org/1999/xlink" x="0px" y="0px"
	 viewBox="0 0 512 512" style="enable-background:new 0 0 512 512;" xml:space="preserve">
<g>
	<path style="fill:#FFFFFF;" d="M473.824,295.778c0.107-1.611,0.181-3.227,0.181-4.863c0-29.772-18.084-55.317-43.863-66.259
		c-7.765-41.768-44.373-73.403-88.394-73.403c-7.582,0-14.941,0.949-21.975,2.715c-8.526-41.409-45.187-72.545-89.119-72.545
		c-29.654,0-55.988,14.19-72.6,36.146c-5.527-1.484-11.336-2.289-17.333-2.289c-29.835,0-55.086,19.603-63.589,46.631
		c-1.02-0.042-2.04-0.078-3.069-0.078C33.159,161.832,0,194.991,0,235.897c0,23.737,11.18,44.852,28.545,58.405
		c-4.049,8.604-6.326,18.212-6.326,28.353c0,36.814,29.844,66.658,66.66,66.658c6.452,0,12.679-0.934,18.581-2.645
		c12.276,18.788,33.478,31.211,57.596,31.211c11.754,0,22.814-2.955,32.491-8.153c15.166,12.989,34.852,20.851,56.386,20.851
		c23.258,0,44.363-9.171,59.942-24.072c8.32,3.233,17.354,5.027,26.814,5.027c31.252,0,57.963-19.365,68.84-46.74
		C473.238,366.533,512,304.454,512,288.683C512,279.273,499.064,292.966,473.824,295.778z"/>
	<path style="fill:#F7F7F7;" d="M26.802,211.38c-1.44,31.658,17.268,79.145,64.754,79.145
		c-7.196,18.705-79.145,10.072-83.462-53.243C9.534,204.186,26.802,211.38,26.802,211.38z"/>
	<path style="fill:#F7F7F7;" d="M62.775,296.28c0,0-24.464,12.951-25.902,40.292c-10.071-18.707,1.44-48.926,1.44-48.926
		L62.775,296.28z"/>
	<g>
		<path style="fill:#FFFFFF;" d="M511.098,293.843c-0.169,0.232-0.346,0.474-0.517,0.71c0.173-0.219,0.336-0.453,0.509-0.674
			C511.094,293.866,511.094,293.854,511.098,293.843z"/>
		<path style="fill:#F7F7F7;" d="M510.581,294.553c-36.262,46.097-99.037,54.607-112.521,49.213c-7.194,24.462-59,48.926-59,48.926
			s5.757-21.585-5.755-31.658c-38.853,63.315-99.29,47.487-113.681,35.975c5.757-2.877,34.536-24.462,11.511-30.219
			c-73.388,46.047-115.118-12.951-119.435-25.902c-4.317-12.951-11.511,18.707-7.194,21.585
			c-34.536,7.194-50.366-2.877-50.366-2.877c-11.636-4.76-21.119-11.079-29.12-17.807c8.225,27.487,33.695,47.524,63.859,47.524
			c6.452,0,12.679-0.934,18.581-2.645c12.276,18.788,33.478,31.211,57.596,31.211c11.754,0,22.814-2.955,32.491-8.153
			c15.166,12.989,34.852,20.851,56.386,20.851c23.258,0,44.363-9.171,59.942-24.072c8.32,3.233,17.354,5.027,26.814,5.027
			c31.252,0,57.963-19.365,68.84-46.74c23.484,0.641,43.562-7.399,59.575-18.583C487.249,325.602,501.44,307.133,510.581,294.553z"
			/>
	</g>
	<path style="fill:#F7F7F7;" d="M228.259,270.378c-7.194,27.341,24.462,66.192,63.315,60.437s47.487-47.484,56.12-44.607
		c8.634,2.877,10.074,33.096,40.292,33.096c7.194,12.951-41.73-4.317-41.73-4.317s-12.951,38.85-66.194,37.413
		C226.819,350.963,210.991,289.083,228.259,270.378z"/>
	<path style="fill:#F7F7F7;" d="M122.133,237.64c-6.475,20.506,21.585,85.26,88.498,52.883c6.475-4.317,12.951-4.317,14.03-1.079
		c1.079,3.238,1.079,20.506,1.079,20.506s-72.305,23.678-102.528-22.664C107.024,262.463,122.133,237.64,122.133,237.64z"/>
	<path style="fill:#F7F7F7;" d="M319.634,169.648c0,0,1.079,26.981-3.238,35.615c12.951-3.238,18.347-3.238,18.347-3.238
		l-7.555-9.713L319.634,169.648z"/>
	<path style="fill:#F7F7F7;" d="M389.424,284.768c0,0,37.415-38.853,27.341-83.822C426.479,212.818,437.632,265.342,389.424,284.768
		z"/>
	<path style="fill:#F7F7F7;" d="M156.669,131.875c0,0-28.06,51.803,12.951,83.102c15.109,18.347-24.053,1.518-33.456-22.664
		C121.054,153.46,156.669,131.875,156.669,131.875z"/>
	<path style="fill:#F7F7F7;" d="M227.899,227.927c14.03,21.585,48.566-2.158,49.645-20.505
		C300.208,224.689,250.563,268.938,227.899,227.927z"/>
</g>
</svg>
