<?xml version="1.0" encoding="iso-8859-1"?>
<!-- Generator: Adobe Illustrator 18.1.1, SVG Export Plug-In . SVG Version: 6.00 Build 0)  -->
<svg version="1.1" id="_x34_" xmlns="http://www.w3.org/2000/svg" xmlns:xlink="http://www.w3.org/1999/xlink" x="0px" y="0px"
	 viewBox="0 0 512 512" style="enable-background:new 0 0 512 512;" xml:space="preserve">
<g>
	<path style="fill:#19BA65;" d="M87.664,384.281c-1.324,1.322-3.119,2.156-5.118,2.237v-3.711c0.278-0.089,0.808-0.291,1.355-0.63
		c0.39-0.246,0.788-0.562,1.096-0.964c0.309-0.404,0.529-0.914,0.523-1.5h-0.63c0,0.435-0.151,0.793-0.398,1.115
		c-0.359,0.485-0.945,0.856-1.436,1.091c-0.196,0.094-0.366,0.164-0.511,0.219v-3.29h-0.63v7.669
		c-1.996-0.081-3.799-0.914-5.122-2.237c-0.819-0.812-1.45-1.821-1.827-2.936c1.178-1.665,1.884-3.687,1.884-5.879
		c0-0.651-0.069-1.293-0.19-1.91l0.133-0.144c1.393-1.394,3.315-2.25,5.438-2.25c2.123,0,4.039,0.857,5.432,2.25
		c1.392,1.392,2.255,3.313,2.255,5.436C89.92,380.974,89.056,382.895,87.664,384.281z"/>
	<path style="fill:#19BA65;" d="M67.021,384.962v-9.496h-0.63v4.147c-0.366-0.133-0.959-0.385-1.525-0.764
		c-0.403-0.264-0.782-0.591-1.059-0.982c-0.271-0.385-0.441-0.82-0.441-1.336h-0.631c-0.006,0.704,0.258,1.311,0.631,1.794
		c0.554,0.731,1.361,1.224,2.022,1.546c0.423,0.208,0.795,0.339,1.003,0.408v4.684c-2.502-0.083-4.758-1.116-6.408-2.766
		c-1.721-1.727-2.785-4.102-2.785-6.73s1.065-5.005,2.785-6.724c1.719-1.721,4.096-2.785,6.723-2.785
		c2.627,0,5.003,1.065,6.729,2.785c1.248,1.247,2.143,2.847,2.547,4.632c-1.286,1.461-2.068,3.376-2.068,5.475
		c0,0.826,0.119,1.627,0.346,2.383c-0.258,0.333-0.529,0.66-0.826,0.965C71.778,383.846,69.522,384.88,67.021,384.962z"/>
	<path style="fill:#EAEAEA;" d="M501.886,333.367c-0.201,0.346-0.737,0.965-1.461,1.696c-2.206,2.218-6.182,5.563-8.558,7.215
		c-3.125,1.808-5.872,2.556-8.683,2.556c-1.444,0-2.824-0.289-4.084-0.807c-0.599-0.244-0.97-0.585-1.475-0.901
		c-0.497-0.314-1.127-0.566-2.105-0.566c-0.976,0-1.6,0.252-2.104,0.566c-0.499,0.316-0.876,0.656-1.469,0.901
		c-1.26,0.518-2.639,0.807-4.089,0.807c-1.449,0-2.824-0.289-4.084-0.807c-0.592-0.244-0.92-0.579-1.405-0.893
		c-0.485-0.321-1.115-0.574-2.167-0.574c-1.058,0-1.689,0.252-2.174,0.574c-0.485,0.314-0.812,0.649-1.405,0.893
		c-1.259,0.518-2.639,0.807-4.083,0.807c-2.955,0-5.621-1.195-7.556-3.124c-1.928-1.935-3.124-4.601-3.124-7.556
		c0-2.949,1.196-5.615,3.124-7.55c1.935-1.927,4.601-3.124,7.556-3.124c1.444,0,2.824,0.289,4.083,0.807
		c0.631,0.264,1.046,0.491,1.557,0.656c0.51,0.169,1.096,0.258,2.022,0.258c0.92,0,1.506-0.089,2.016-0.258
		c0.51-0.165,0.926-0.393,1.556-0.656c1.26-0.518,2.634-0.807,4.084-0.807c1.45,0,2.829,0.289,4.089,0.807
		c0.31,0.133,0.529,0.246,0.732,0.352c0.302,0.164,0.585,0.316,1.002,0.416c0.423,0.094,0.964,0.146,1.839,0.146
		c1.172,0,1.752-0.089,2.219-0.266c0.233-0.081,0.423-0.189,0.624-0.296c0.208-0.106,0.428-0.219,0.738-0.352
		c1.26-0.518,2.64-0.807,4.084-0.807c2.948,0,5.62,1.197,7.548,3.124c0.934,0.934,1.689,2.031,2.231,3.251l0.025,0.071l0.057,0.044
		c1.456,1.234,3.169,2.079,4.738,2.62c1.576,0.543,2.999,0.781,3.919,0.787C501.767,333.378,501.823,333.372,501.886,333.367z"/>
	<polygon style="fill:#FFFFFF;" points="133.405,280.826 133.405,289.983 106.474,289.983 106.474,280.826 119.939,280.826 	"/>
	<polygon style="fill:#FFFFFF;" points="133.405,303.404 133.405,312.629 106.474,312.629 106.474,303.404 119.939,303.404 	"/>
	<polygon style="fill:#FFFFFF;" points="133.405,326.057 133.405,335.276 106.474,335.276 106.474,326.057 119.939,326.057 	"/>
	<polygon style="fill:#FFFFFF;" points="133.405,348.703 133.405,357.924 106.474,357.924 106.474,348.703 119.939,348.703 	"/>
	<polygon style="fill:#FFFFFF;" points="133.405,371.351 133.405,380.57 106.474,380.57 106.474,371.351 119.939,371.351 	"/>
	<polygon style="fill:#FFFFFF;" points="133.493,381.199 137.646,393.367 119.939,393.367 102.233,393.367 106.385,381.199 	"/>
	<polygon style="fill:#FFFFFF;" points="379.754,194.618 379.754,194.688 377.625,204.725 356.257,204.725 354.127,194.688 
		354.127,194.618 354.127,189.583 379.754,189.583 	"/>
	<polygon style="fill:#FFFFFF;" points="382.238,245.519 382.238,252.016 379.71,261.828 354.171,261.828 351.638,252.016 
		351.638,245.519 	"/>
	<polygon style="fill:#FFFFFF;" points="301.139,303.833 301.139,393.367 296.061,393.367 296.061,371.944 285.978,371.944 
		285.978,324.62 294.379,324.62 294.379,303.833 	"/>
	<polygon style="fill:#FFFFFF;" points="345.841,324.62 345.841,393.367 330.68,393.367 330.68,303.833 337.435,303.833 
		337.435,324.62 	"/>
	<polygon style="fill:#FFFFFF;" points="442.78,299.238 442.78,310.172 438.93,317.753 386.384,317.753 382.54,310.172 
		382.54,299.238 	"/>
	<path style="fill:#FFFFFF;" d="M479.133,209.993h-51.564c-0.919-1.646-1.443-3.528-1.443-5.546c0-3.157,1.273-6.012,3.34-8.072
		c2.066-2.067,4.914-3.346,8.072-3.346h0.108l0.164,0.006l0.094-0.133c2.571-3.477,6.705-5.74,11.367-5.74
		c4.67,0,8.81,2.275,11.381,5.767l0.1,0.137l0.177-0.011c0.246-0.012,0.498-0.025,0.743-0.025c2.843,0,5.413,1.153,7.278,3.013
		c1.86,1.865,3.013,4.435,3.013,7.277v0.138l0.1,0.096L479.133,209.993z"/>
	<path style="fill:#FFFFFF;" d="M131.3,182.905H79.737c-0.92-1.646-1.444-3.536-1.444-5.552c0-3.151,1.272-6.006,3.34-8.073
		c2.068-2.06,4.915-3.338,8.072-3.338h0.108l0.164,0.006l0.094-0.133c2.571-3.484,6.705-5.74,11.367-5.74
		c4.67,0,8.811,2.268,11.381,5.765l0.101,0.138l0.176-0.011c0.246-0.014,0.499-0.025,0.744-0.025c2.842,0,5.412,1.145,7.277,3.011
		c1.86,1.865,3.013,4.437,3.013,7.278v0.139l0.1,0.089L131.3,182.905z"/>
	<path style="fill:#FF4239;" d="M264.58,134.012c1.846,1.846,2.986,4.399,2.986,7.215c0,2.824-1.14,5.376-2.986,7.222
		c-1.846,1.846-4.398,2.986-7.222,2.986c-2.817,0-5.369-1.14-7.215-2.986c-1.847-1.846-2.993-4.398-2.993-7.222
		c0-2.816,1.146-5.369,2.993-7.215c1.846-1.846,4.398-2.986,7.215-2.986C260.181,131.026,262.734,132.166,264.58,134.012z"/>
	<path style="fill:#EAEAEA;" d="M438.81,318.383v74.984h-52.301v-74.984H438.81z M426.101,383.979v-4.537h-0.629v4.537H426.101z
		 M426.101,371.079v-4.537h-0.629v4.537H426.101z M426.101,358.188v-4.537h-0.629v4.537H426.101z M426.101,345.288v-4.537h-0.629
		v4.537H426.101z M426.101,332.391v-4.537h-0.629v4.537H426.101z M413.126,383.979v-4.537h-0.63v4.537H413.126z M413.126,371.079
		v-4.537h-0.63v4.537H413.126z M413.126,358.188v-4.537h-0.63v4.537H413.126z M413.126,345.288v-4.537h-0.63v4.537H413.126z
		 M413.126,332.391v-4.537h-0.63v4.537H413.126z M400.152,383.979v-4.537h-0.63v4.537H400.152z M400.152,371.079v-4.537h-0.63v4.537
		H400.152z M400.152,358.188v-4.537h-0.63v4.537H400.152z M400.152,345.288v-4.537h-0.63v4.537H400.152z M400.152,332.391v-4.537
		h-0.63v4.537H400.152z"/>
	<path style="fill:#EAEAEA;" d="M330.05,293.176v100.191h-28.28V293.176c3.428-2.955,8.488-4.845,14.14-4.845
		C321.561,288.331,326.616,290.222,330.05,293.176z"/>
	<rect x="256.992" y="372.573" style="fill:#EAEAEA;" width="38.438" height="20.794"/>
	<path style="fill:#EAEAEA;" d="M156.601,346.605c0.832,0.474,2.016,0.951,3.459,0.951c2.01,0.008,4.474-0.957,7.007-4.039
		c2.508-3.063,5.122-8.21,7.555-16.667h28.092h28.09c2.439,8.456,5.048,13.604,7.563,16.667c2.526,3.082,4.99,4.046,7.007,4.039
		c1.437,0,2.628-0.478,3.459-0.951c0.101-0.056,0.196-0.114,0.29-0.175c-0.542,1.103-1.499,2.853-2.836,4.529
		c-0.964,1.211-2.117,2.375-3.44,3.226c-1.324,0.864-2.811,1.411-4.462,1.411c-3.673,0-12.59,0-20.586,0c-4.002,0-7.769,0-10.542,0
		c-1.386,0-2.521,0-3.308,0c-0.787,0-1.228,0-1.235,0c0,0-28.324,0-35.671,0c-1.758,0-3.334-0.63-4.72-1.581
		c-2.079-1.436-3.724-3.617-4.834-5.438c-0.504-0.826-0.894-1.569-1.178-2.143C156.404,346.491,156.499,346.549,156.601,346.605z"/>
	<path style="fill:#EAEAEA;" d="M145.258,280.196h-25.319H94.62c5.62-1.45,9.805-4.171,12.679-6.685
		c2.891-2.545,4.454-4.87,4.839-5.477h15.601c0.378,0.606,1.941,2.932,4.839,5.477C135.447,276.025,139.631,278.747,145.258,280.196
		z"/>
	<path style="fill:#EAEAEA;" d="M146.871,302.775h-26.932H93.007c7.599-3.783,12.59-11.059,13.321-12.162h27.222
		C134.28,291.715,139.272,298.992,146.871,302.775z"/>
	<path style="fill:#EAEAEA;" d="M146.871,325.426h-26.932H93.007c7.599-3.781,12.59-11.065,13.321-12.168h27.222
		C134.28,314.361,139.272,321.645,146.871,325.426z"/>
	<path style="fill:#EAEAEA;" d="M146.871,348.074h-26.932H93.007c7.593-3.781,12.59-11.059,13.321-12.168h27.222
		C134.28,337.015,139.272,344.293,146.871,348.074z"/>
	<path style="fill:#EAEAEA;" d="M146.871,370.721h-26.932H93.007c7.599-3.781,12.59-11.059,13.321-12.168h27.222
		C134.28,359.662,139.272,366.94,146.871,370.721z"/>
	<path style="fill:#B1E3F2;" d="M53.461,336.025v57.342H25.104v-57.342H53.461z M45.268,384.362v-6.212h-0.629v6.212H45.268z
		 M45.268,368.15v-6.214h-0.629v6.214H45.268z M45.268,351.93v-6.212h-0.629v6.212H45.268z M33.926,384.362v-6.212h-0.629v6.212
		H33.926z M33.926,368.15v-6.214h-0.629v6.214H33.926z M33.926,351.93v-6.212h-0.629v6.212H33.926z"/>
	<path style="fill:#B1E3F2;" d="M240.61,344.847v-32.987l33.397-15.931v76.014h-17.644v21.423h-10.314v-10.491h-5.438v-26.969
		c1.033-0.291,1.985-0.776,2.854-1.375c2.199-1.519,3.876-3.761,5.016-5.627c1.141-1.865,1.733-3.359,1.74-3.365l0.573-1.43
		l-1.09,1.089l-0.012,0.014c-0.183,0.175-1.891,1.721-4.317,1.713c-1.393,0-3.05-0.497-4.858-2.079H240.61z"/>
	<rect x="362.212" y="167.705" style="fill:#B1E3F2;" width="9.452" height="21.248"/>
	<polygon style="fill:#B1E3F2;" points="375.483,205.356 376.906,244.89 356.95,244.89 358.399,205.356 	"/>
	<polygon style="fill:#B1E3F2;" points="377.587,262.787 382.369,393.367 371.991,393.367 366.938,375.711 361.89,393.367 
		351.513,393.367 356.294,262.787 355.665,262.76 355.665,262.457 378.216,262.457 378.216,262.76 	"/>
	<polygon style="fill:#B1E3F2;" points="493.859,351.358 491.168,393.367 446.303,393.367 443.612,351.358 	"/>
	<path style="fill:#FF4239;" d="M210.268,371.478v5.594c0,2.087-0.844,3.969-2.212,5.338c-1.367,1.367-3.257,2.212-5.343,2.212
		c-2.086,0-3.97-0.845-5.337-2.212c-1.368-1.369-2.212-3.251-2.212-5.338v-5.594c0-2.087,0.844-3.977,2.212-5.344
		c1.367-1.369,3.251-2.212,5.337-2.212c2.086,0,3.976,0.843,5.343,2.212C209.424,367.501,210.268,369.391,210.268,371.478z"/>
	<g>
		<path style="fill:#231815;" d="M478.068,324.084c-0.31,0.164-0.511,0.271-0.851,0.352c-0.341,0.083-0.839,0.133-1.696,0.133
			c-1.14,0-1.638-0.089-1.997-0.219c-0.183-0.069-0.34-0.158-0.548-0.266c-0.202-0.108-0.448-0.239-0.788-0.377
			c-1.336-0.554-2.798-0.857-4.328-0.857c-1.532,0-2.993,0.302-4.323,0.857c-0.661,0.277-1.07,0.491-1.512,0.635
			c-0.441,0.146-0.939,0.227-1.821,0.227c-0.888,0-1.386-0.081-1.828-0.227c-0.441-0.144-0.851-0.358-1.511-0.635
			c-1.33-0.554-2.792-0.857-4.324-0.857c-3.125,0-5.954,1.267-7.996,3.313c-2.048,2.043-3.315,4.872-3.315,7.991
			c0,3.126,1.267,5.954,3.315,7.997c2.042,2.048,4.871,3.315,7.996,3.315c1.531,0,2.993-0.302,4.324-0.857
			c0.704-0.297,1.095-0.687,1.505-0.953c0.416-0.263,0.863-0.46,1.833-0.466c0.964,0.006,1.412,0.202,1.821,0.466
			c0.417,0.266,0.806,0.656,1.512,0.953c1.33,0.554,2.791,0.857,4.323,0.857c1.53,0,2.992-0.302,4.328-0.857
			c0.7-0.29,1.128-0.676,1.562-0.945c0.442-0.271,0.895-0.468,1.771-0.473c0.883,0.006,1.33,0.202,1.771,0.473
			c0.441,0.27,0.87,0.655,1.569,0.945c1.33,0.554,2.791,0.857,4.323,0.857c2.93,0,5.81-0.795,9.01-2.647l0.013-0.006l0.013-0.013
			c1.745-1.217,4.31-3.301,6.446-5.217c1.071-0.959,2.029-1.871,2.734-2.622c0.346-0.372,0.637-0.707,0.838-0.982
			c0.101-0.146,0.19-0.271,0.245-0.399c0.064-0.119,0.114-0.233,0.114-0.383c0.006-0.113-0.05-0.271-0.17-0.36
			c-0.114-0.089-0.234-0.108-0.341-0.108l-0.082,0.006c-0.089,0.008-0.19,0.013-0.303,0.013c-0.813,0-2.198-0.227-3.711-0.749
			c-1.5-0.518-3.125-1.33-4.493-2.478c-0.567-1.259-1.354-2.401-2.318-3.359c-2.043-2.046-4.872-3.313-7.997-3.313
			c-1.532,0-2.993,0.302-4.323,0.857C478.521,323.846,478.276,323.977,478.068,324.084z M483.185,323.48
			c2.948,0,5.62,1.197,7.548,3.124c0.934,0.934,1.689,2.031,2.231,3.251l0.025,0.071l0.057,0.044
			c1.456,1.234,3.169,2.079,4.738,2.62c1.576,0.543,2.999,0.781,3.919,0.787c0.064,0,0.12-0.006,0.183-0.012
			c-0.201,0.346-0.737,0.965-1.461,1.696c-2.206,2.218-6.182,5.563-8.558,7.215c-3.125,1.808-5.872,2.556-8.683,2.556
			c-1.444,0-2.824-0.289-4.084-0.807c-0.599-0.244-0.97-0.585-1.475-0.901c-0.497-0.314-1.127-0.566-2.105-0.566
			c-0.976,0-1.6,0.252-2.104,0.566c-0.499,0.316-0.876,0.656-1.469,0.901c-1.26,0.518-2.639,0.807-4.089,0.807
			c-1.449,0-2.824-0.289-4.084-0.807c-0.592-0.244-0.92-0.579-1.405-0.893c-0.485-0.321-1.115-0.574-2.167-0.574
			c-1.058,0-1.689,0.252-2.174,0.574c-0.485,0.314-0.812,0.649-1.405,0.893c-1.259,0.518-2.639,0.807-4.083,0.807
			c-2.955,0-5.621-1.195-7.556-3.124c-1.928-1.935-3.124-4.601-3.124-7.556c0-2.949,1.196-5.615,3.124-7.55
			c1.935-1.927,4.601-3.124,7.556-3.124c1.444,0,2.824,0.289,4.083,0.807c0.631,0.264,1.046,0.491,1.557,0.656
			c0.51,0.169,1.096,0.258,2.022,0.258c0.92,0,1.506-0.089,2.016-0.258c0.51-0.165,0.926-0.393,1.556-0.656
			c1.26-0.518,2.634-0.807,4.084-0.807c1.45,0,2.829,0.289,4.089,0.807c0.31,0.133,0.529,0.246,0.732,0.352
			c0.302,0.164,0.585,0.316,1.002,0.416c0.423,0.094,0.964,0.146,1.839,0.146c1.172,0,1.752-0.089,2.219-0.266
			c0.233-0.081,0.423-0.189,0.624-0.296c0.208-0.106,0.428-0.219,0.738-0.352C480.361,323.769,481.741,323.48,483.185,323.48z"/>
		<path style="fill:#231815;" d="M427.197,210.623h53.561l-8.173-7.448c-0.083-5.967-4.934-10.774-10.915-10.774
			c-0.208,0-0.416,0.012-0.617,0.025c-2.69-3.573-6.97-5.892-11.784-5.892c-4.808,0-9.08,2.306-11.77,5.867
			c-6.636,0.025-12.004,5.405-12.004,12.047c0,2.187,0.586,4.249,1.613,6.018L427.197,210.623z M429.466,196.376
			c2.066-2.067,4.914-3.346,8.072-3.346h0.108l0.164,0.006l0.094-0.133c2.571-3.477,6.705-5.74,11.367-5.74
			c4.67,0,8.81,2.275,11.381,5.767l0.1,0.137l0.177-0.011c0.246-0.012,0.498-0.025,0.743-0.025c2.843,0,5.413,1.153,7.278,3.013
			c1.86,1.865,3.013,4.435,3.013,7.277v0.138l0.1,0.096l7.071,6.439h-51.564c-0.919-1.646-1.443-3.528-1.443-5.546
			C426.126,201.29,427.398,198.436,429.466,196.376z"/>
		<rect x="425.471" y="379.441" style="fill:#231815;" width="0.629" height="4.537"/>
		<rect x="425.471" y="366.542" style="fill:#231815;" width="0.629" height="4.537"/>
		<rect x="425.471" y="353.65" style="fill:#231815;" width="0.629" height="4.537"/>
		<rect x="425.471" y="340.751" style="fill:#231815;" width="0.629" height="4.537"/>
		<rect x="425.471" y="327.853" style="fill:#231815;" width="0.629" height="4.537"/>
		<rect x="412.496" y="379.441" style="fill:#231815;" width="0.63" height="4.537"/>
		<rect x="412.496" y="366.542" style="fill:#231815;" width="0.63" height="4.537"/>
		<rect x="412.496" y="353.65" style="fill:#231815;" width="0.63" height="4.537"/>
		<rect x="412.496" y="340.751" style="fill:#231815;" width="0.63" height="4.537"/>
		<rect x="412.496" y="327.853" style="fill:#231815;" width="0.63" height="4.537"/>
		<rect x="399.522" y="379.441" style="fill:#231815;" width="0.63" height="4.537"/>
		<rect x="399.522" y="366.542" style="fill:#231815;" width="0.63" height="4.537"/>
		<rect x="399.522" y="353.65" style="fill:#231815;" width="0.63" height="4.537"/>
		<rect x="399.522" y="340.751" style="fill:#231815;" width="0.63" height="4.537"/>
		<rect x="399.522" y="327.853" style="fill:#231815;" width="0.63" height="4.537"/>
		<path style="fill:#231815;" d="M355.665,262.457h22.552h1.979l2.672-10.358v-7.209h-5.33l-1.424-39.534h2.023l2.249-10.607v-0.131
			v-5.665h-8.091v-21.878h-5.04V130.27h-0.631v36.806h-5.041v21.878h-8.084v5.665v0.1v0.031l2.248,10.607h2.017l-1.444,39.534
			h-5.311v0.316v6.893l2.672,10.358H355.665z M362.212,167.705h9.452v21.248h-9.452V167.705z M356.257,204.725l-2.13-10.037v-0.069
			v-5.036h25.628v5.036v0.069l-2.129,10.037H356.257z M358.399,205.356h17.083l1.424,39.534H356.95L358.399,205.356z
			 M351.638,245.519h30.6v6.497l-2.527,9.812h-25.539l-2.533-9.812V245.519z"/>
		<rect x="273.061" y="140.913" style="fill:#231815;" width="7.53" height="0.629"/>
		<polygon style="fill:#231815;" points="277.635,129.885 277.32,129.344 270.798,133.105 271.113,133.654 		"/>
		<polygon style="fill:#231815;" points="277.635,152.576 271.113,148.807 270.798,149.356 277.32,153.117 		"/>
		<polygon style="fill:#231815;" points="269.248,121.264 268.707,120.951 264.938,127.471 265.486,127.786 		"/>
		<polygon style="fill:#231815;" points="269.248,161.189 265.486,154.667 264.938,154.983 268.707,161.505 		"/>
		<rect x="257.043" y="156.931" style="fill:#231815;" width="0.629" height="7.529"/>
		<rect x="257.043" y="118.002" style="fill:#231815;" width="0.629" height="7.529"/>
		<polygon style="fill:#231815;" points="249.784,127.471 246.016,120.956 245.474,121.27 249.235,127.786 		"/>
		<polygon style="fill:#231815;" points="249.784,154.983 249.235,154.667 245.474,161.189 246.016,161.505 		"/>
		<path style="fill:#231815;" d="M268.197,141.227c0-5.979-4.853-10.832-10.839-10.832c-5.98,0-10.839,4.853-10.839,10.832
			c0,5.987,4.859,10.84,10.839,10.84C263.344,152.066,268.197,147.213,268.197,141.227z M257.358,151.435
			c-2.817,0-5.369-1.14-7.215-2.986c-1.847-1.846-2.993-4.398-2.993-7.222c0-2.816,1.146-5.369,2.993-7.215
			c1.846-1.846,4.398-2.986,7.215-2.986c2.823,0,5.376,1.14,7.222,2.986c1.846,1.846,2.986,4.399,2.986,7.215
			c0,2.824-1.14,5.376-2.986,7.222C262.734,150.295,260.181,151.435,257.358,151.435z"/>
		<polygon style="fill:#231815;" points="243.917,133.105 237.401,129.344 237.087,129.885 243.603,133.654 		"/>
		
			<rect x="240.186" y="147.197" transform="matrix(-0.5018 -0.865 0.865 -0.5018 230.6017 434.7443)" style="fill:#231815;" width="0.625" height="7.532"/>
		<rect x="234.132" y="140.913" style="fill:#231815;" width="7.53" height="0.629"/>
		<polygon style="fill:#231815;" points="197.47,360.846 197.47,361.478 202.713,361.478 207.962,361.478 207.962,360.846 
			202.713,360.846 		"/>
		<rect x="200.092" y="387.072" style="fill:#231815;" width="5.248" height="0.631"/>
		<path style="fill:#231815;" d="M194.534,371.478v5.594c0,4.518,3.661,8.179,8.179,8.179c4.525,0,8.186-3.661,8.186-8.179v-5.594
			c0-4.526-3.661-8.187-8.186-8.187C198.195,363.291,194.534,366.952,194.534,371.478z M210.268,371.478v5.594
			c0,2.087-0.844,3.969-2.212,5.338c-1.367,1.367-3.257,2.212-5.343,2.212c-2.086,0-3.97-0.845-5.337-2.212
			c-1.368-1.369-2.212-3.251-2.212-5.338v-5.594c0-2.087,0.844-3.977,2.212-5.344c1.367-1.369,3.251-2.212,5.337-2.212
			c2.086,0,3.976,0.843,5.343,2.212C209.424,367.501,210.268,369.391,210.268,371.478z"/>
		<rect x="119.624" y="242.911" style="fill:#231815;" width="0.63" height="23.92"/>
		<path style="fill:#231815;" d="M79.365,183.534h53.561l-8.173-7.454c-0.083-5.962-4.934-10.77-10.914-10.77
			c-0.209,0-0.417,0.013-0.618,0.019c-2.69-3.567-6.969-5.885-11.784-5.885c-4.807,0-9.079,2.306-11.77,5.865
			c-6.635,0.025-12.004,5.407-12.004,12.043c0,2.193,0.585,4.253,1.613,6.023L79.365,183.534z M81.633,169.28
			c2.068-2.06,4.915-3.338,8.072-3.338h0.108l0.164,0.006l0.094-0.133c2.571-3.484,6.705-5.74,11.367-5.74
			c4.67,0,8.811,2.268,11.381,5.765l0.101,0.138l0.176-0.011c0.246-0.014,0.499-0.025,0.744-0.025c2.842,0,5.412,1.145,7.277,3.011
			c1.86,1.865,3.013,4.437,3.013,7.278v0.139l0.1,0.089l7.07,6.447H79.737c-0.92-1.646-1.444-3.536-1.444-5.552
			C78.294,174.202,79.566,171.347,81.633,169.28z"/>
		<rect x="44.639" y="378.15" style="fill:#231815;" width="0.629" height="6.212"/>
		<rect x="44.639" y="361.936" style="fill:#231815;" width="0.629" height="6.214"/>
		<rect x="44.639" y="345.717" style="fill:#231815;" width="0.629" height="6.212"/>
		<rect x="33.297" y="378.15" style="fill:#231815;" width="0.629" height="6.212"/>
		<rect x="33.297" y="361.936" style="fill:#231815;" width="0.629" height="6.214"/>
		<rect x="33.297" y="345.717" style="fill:#231815;" width="0.629" height="6.212"/>
		<path style="fill:#231815;" d="M491.798,393.367l2.728-42.641h-51.582l2.728,42.641h-6.231v-75.225l3.931-7.756l-0.277-0.139
			h0.316v-11.639h-61.501v11.639h0.315l-0.283,0.139l3.938,7.756v75.225H383l-4.783-130.607l-0.63,0.027l4.783,130.581h-10.379
			l-5.053-17.656l-5.048,17.656h-10.378l4.782-130.581l-0.63-0.027l-4.784,130.607h-4.41V323.99h-8.407v-20.788h-7.384V292.88
			l-0.113-0.087c-3.561-3.126-8.81-5.086-14.657-5.092c-5.854,0.006-11.098,1.965-14.663,5.092l-0.108,0.087v10.322h-7.391v20.788
			h-8.4v47.953h-10.712v-77.015l-34.657,16.536v32.879c-0.372-0.36-0.744-0.768-1.128-1.228c-2.413-2.943-4.991-7.983-7.405-16.32
			c0.322-0.05,0.813-0.146,1.35-0.31c0.453-0.131,0.932-0.314,1.354-0.56c0.423-0.252,0.807-0.568,1.021-0.995l-0.568-0.285
			c-0.132,0.271-0.409,0.523-0.768,0.732c-0.543,0.322-1.261,0.535-1.834,0.668c-0.283,0.069-0.535,0.114-0.711,0.139
			c-0.089,0.013-0.165,0.025-0.209,0.033l-0.056,0.006h-28.312h-28.305c-0.013,0-0.051-0.006-0.114-0.013
			c-0.29-0.044-1.052-0.17-1.796-0.427c-0.372-0.127-0.737-0.291-1.033-0.479c-0.303-0.194-0.524-0.421-0.643-0.656l-0.561,0.285
			c0.215,0.427,0.592,0.743,1.014,0.995c0.642,0.372,1.399,0.593,2.01,0.737c0.271,0.056,0.511,0.108,0.7,0.133
			c-2.414,8.337-4.99,13.377-7.41,16.32c-2.452,2.98-4.708,3.812-6.515,3.812c-1.298,0-2.382-0.435-3.151-0.868
			c-0.377-0.216-0.68-0.435-0.882-0.599c-0.101-0.083-0.177-0.146-0.227-0.196l-0.057-0.05l-0.018-0.014l-1.084-1.084l0.566,1.425
			c0.013,0.013,1.065,2.653,3.063,5.319c0.995,1.33,2.231,2.666,3.693,3.673c1.462,1.009,3.17,1.696,5.079,1.696
			c1.178,0,2.885,0,4.934,0v26.648h-12.59v10.491h-21.079l-4.272-12.534v-9.483h15.802l-1.423-0.604
			c-4.367-1.86-7.984-5.03-10.504-7.733c-1.255-1.353-2.237-2.597-2.911-3.49c-0.334-0.447-0.586-0.812-0.755-1.064
			c-0.089-0.127-0.152-0.221-0.196-0.291l-0.012-0.019v-9.446h15.802l-1.423-0.605c-4.367-1.859-7.984-5.028-10.504-7.731
			c-1.255-1.355-2.237-2.597-2.911-3.492c-0.334-0.447-0.586-0.812-0.755-1.065c-0.089-0.127-0.152-0.221-0.196-0.29l-0.012-0.017
			v-9.446h15.802l-1.423-0.604c-4.367-1.86-7.984-5.03-10.504-7.739c-1.255-1.349-2.237-2.589-2.911-3.484
			c-0.334-0.454-0.586-0.814-0.755-1.066c-0.089-0.125-0.152-0.227-0.196-0.289l-0.012-0.019v-9.452h15.802l-1.423-0.604
			c-4.367-1.854-7.984-5.024-10.504-7.733c-1.255-1.355-2.237-2.589-2.911-3.484c-0.334-0.454-0.586-0.812-0.755-1.064
			c-0.089-0.127-0.152-0.227-0.196-0.291l-0.012-0.025v-9.377h14.26l0.05-0.624c-7.019-1.115-12.061-4.285-15.35-7.171
			c-1.645-1.444-2.854-2.816-3.642-3.825c-0.397-0.505-0.693-0.92-0.883-1.203c-0.1-0.144-0.169-0.258-0.219-0.335l-0.051-0.081
			l-0.018-0.025l-0.089-0.158h-0.183h-16.132l-0.089,0.158l-0.019,0.025c-0.169,0.289-1.808,2.905-5.103,5.715
			c-3.296,2.816-8.236,5.815-15.035,6.899l0.051,0.624h14.259v9.377l-0.018,0.025c-0.637,0.984-6.17,9.1-14.368,12.572l-1.423,0.604
			h15.81v9.452l-0.018,0.019c-0.637,0.982-6.17,9.098-14.368,12.578l-1.423,0.604h15.81v9.44l-0.018,0.023
			c-0.637,0.984-6.17,9.105-14.368,12.578l-1.423,0.605h15.81v9.446l-0.018,0.019c-0.637,0.99-6.17,9.105-14.368,12.578
			l-1.423,0.604h15.81v9.483l-4.278,12.534H82.547v-6.22c4.443-0.164,8.003-3.812,8.003-8.299c0-4.593-3.725-8.316-8.318-8.316
			c-2.231,0-4.247,0.874-5.741,2.306c-1.159-4.324-5.097-7.511-9.786-7.511c-5.603,0-10.14,4.543-10.14,10.139
			c0,5.494,4.374,9.962,9.825,10.126v7.775H54.09v-57.971H24.474v57.971H0v0.631h24.474H54.09h47.26h18.589h18.59h212.328h11.507
			h9.156h11.5h2.86h53.561h6.27h46.05H512v-0.631H491.798z M53.461,393.367H25.104v-57.342h28.357V393.367z M76.22,375.466
			c0,1.871-0.548,3.609-1.48,5.084c-0.126-0.549-0.195-1.115-0.195-1.702c0-1.758,0.592-3.365,1.576-4.657
			C76.176,374.608,76.22,375.031,76.22,375.466z M66.391,379.613c-0.366-0.133-0.959-0.385-1.525-0.764
			c-0.403-0.264-0.782-0.591-1.059-0.982c-0.271-0.385-0.441-0.82-0.441-1.336h-0.631c-0.006,0.704,0.258,1.311,0.631,1.794
			c0.554,0.731,1.361,1.224,2.022,1.546c0.423,0.208,0.795,0.339,1.003,0.408v4.684c-2.502-0.083-4.758-1.116-6.408-2.766
			c-1.721-1.727-2.785-4.102-2.785-6.73s1.065-5.005,2.785-6.724c1.719-1.721,4.096-2.785,6.723-2.785
			c2.627,0,5.003,1.065,6.729,2.785c1.248,1.247,2.143,2.847,2.547,4.632c-1.286,1.461-2.068,3.376-2.068,5.475
			c0,0.826,0.119,1.627,0.346,2.383c-0.258,0.333-0.529,0.66-0.826,0.965c-1.657,1.65-3.913,2.683-6.414,2.766v-9.496h-0.63V379.613
			z M81.916,393.367H67.021v-7.775c3.013-0.094,5.696-1.488,7.492-3.65c1.192,2.97,4.039,5.08,7.404,5.205V393.367z M81.916,386.518
			c-1.996-0.081-3.799-0.914-5.122-2.237c-0.819-0.812-1.45-1.821-1.827-2.936c1.178-1.665,1.884-3.687,1.884-5.879
			c0-0.651-0.069-1.293-0.19-1.91l0.133-0.144c1.393-1.394,3.315-2.25,5.438-2.25c2.123,0,4.039,0.857,5.432,2.25
			c1.392,1.392,2.255,3.313,2.255,5.436c0,2.125-0.863,4.046-2.255,5.432c-1.324,1.322-3.119,2.156-5.118,2.237v-3.711
			c0.278-0.089,0.808-0.291,1.355-0.63c0.39-0.246,0.788-0.562,1.096-0.964c0.309-0.404,0.529-0.914,0.523-1.5h-0.63
			c0,0.435-0.151,0.793-0.398,1.115c-0.359,0.485-0.945,0.856-1.436,1.091c-0.196,0.094-0.366,0.164-0.511,0.219v-3.29h-0.63
			V386.518z M94.62,280.196c5.62-1.45,9.805-4.171,12.679-6.685c2.891-2.545,4.454-4.87,4.839-5.477h15.601
			c0.378,0.606,1.941,2.932,4.839,5.477c2.867,2.514,7.051,5.236,12.678,6.685h-25.319H94.62z M133.405,280.826v9.157h-26.932
			v-9.157h13.465H133.405z M93.007,302.775c7.599-3.783,12.59-11.059,13.321-12.162h27.222c0.73,1.103,5.721,8.379,13.32,12.162
			h-26.932H93.007z M133.405,303.404v9.225h-26.932v-9.225h13.465H133.405z M93.007,325.426c7.599-3.781,12.59-11.065,13.321-12.168
			h27.222c0.73,1.103,5.721,8.387,13.32,12.168h-26.932H93.007z M133.405,326.057v9.219h-26.932v-9.219h13.465H133.405z
			 M93.007,348.074c7.593-3.781,12.59-11.059,13.321-12.168h27.222c0.73,1.109,5.721,8.387,13.32,12.168h-26.932H93.007z
			 M133.405,348.703v9.221h-26.932v-9.221h13.465H133.405z M93.007,370.721c7.599-3.781,12.59-11.059,13.321-12.168h27.222
			c0.73,1.109,5.721,8.387,13.32,12.168h-26.932H93.007z M133.405,371.351v9.219h-26.932v-9.219h13.465H133.405z M119.939,393.367
			h-17.706l4.152-12.168h27.108l4.153,12.168H119.939z M167.426,393.367h-7.41v-9.862h7.41V393.367z M171.976,393.367h-3.919v-9.862
			h3.919V393.367z M167.042,355.597c-1.758,0-3.334-0.63-4.72-1.581c-2.079-1.436-3.724-3.617-4.834-5.438
			c-0.504-0.826-0.894-1.569-1.178-2.143c0.094,0.056,0.19,0.114,0.291,0.169c0.832,0.474,2.016,0.951,3.459,0.951
			c2.01,0.008,4.474-0.957,7.007-4.039c2.508-3.063,5.122-8.21,7.555-16.667h28.092h28.09c2.439,8.456,5.048,13.604,7.563,16.667
			c2.526,3.082,4.99,4.046,7.007,4.039c1.437,0,2.628-0.478,3.459-0.951c0.101-0.056,0.196-0.114,0.29-0.175
			c-0.542,1.103-1.499,2.853-2.836,4.529c-0.964,1.211-2.117,2.375-3.44,3.226c-1.324,0.864-2.811,1.411-4.462,1.411
			c-3.673,0-12.59,0-20.586,0c-4.002,0-7.769,0-10.542,0c-1.386,0-2.521,0-3.308,0c-0.787,0-1.228,0-1.235,0
			C202.713,355.597,174.389,355.597,167.042,355.597z M239.979,356.063v26.813h-6.522v-26.648c2.041,0,3.755,0,4.927,0
			C238.933,356.228,239.462,356.164,239.979,356.063z M178.27,393.367h-5.665v-9.862h5.665V393.367z M182.467,393.367H178.9v-10.491
			h-6.295v-26.648c2.874,0,6.328,0,9.862,0V393.367z M222.335,393.367h-39.238v-37.139c9.647,0,19.616,0,19.616,0
			c0.007,0,0.448,0,1.235,0c2.955,0,10.775,0,18.387,0V393.367z M232.827,393.367h-5.665v-9.862h5.665V393.367z M232.827,382.876
			h-6.295v10.491h-3.567v-37.139c3.529,0,6.989,0,9.862,0V382.876z M237.37,393.367h-3.913v-9.862h3.913V393.367z M245.416,393.367
			H238v-9.862h7.416V393.367z M256.362,393.367h-10.314v-10.491h-5.438v-26.969c1.033-0.291,1.985-0.776,2.854-1.375
			c2.199-1.519,3.876-3.761,5.016-5.627c1.141-1.865,1.733-3.359,1.74-3.365l0.573-1.43l-1.09,1.089l-0.012,0.014
			c-0.183,0.175-1.891,1.721-4.317,1.713c-1.393,0-3.05-0.497-4.858-2.079h0.094v-32.987l33.397-15.931v76.014h-17.644V393.367z
			 M295.431,393.367h-38.438v-20.794h38.438V393.367z M301.139,393.367h-5.078v-21.423h-10.083V324.62h8.401v-20.786h6.761V393.367z
			 M330.05,393.367h-28.28V293.176c3.428-2.955,8.488-4.845,14.14-4.845c5.652,0,10.706,1.89,14.14,4.845V393.367z M345.841,393.367
			h-15.16v-89.534h6.755v20.786h8.405V393.367z M362.545,393.367l4.393-15.362l4.398,15.362H362.545z M438.81,393.367h-52.301
			v-74.984h52.301V393.367z M438.93,317.753h-52.546l-3.844-7.581v-10.934h60.24v10.934L438.93,317.753z M491.168,393.367h-44.865
			l-2.69-42.009h50.246L491.168,393.367z"/>
	</g>
</g>
</svg>
